<?xml version="1.0" standalone="no"?>
<!DOCTYPE svg PUBLIC "-//W3C//DTD SVG 20010904//EN"
 "http://www.w3.org/TR/2001/REC-SVG-20010904/DTD/svg10.dtd">
<svg version="1.0" xmlns="http://www.w3.org/2000/svg"
 width="514.000000pt" height="514.000000pt" viewBox="0 0 514.000000 514.000000"
 preserveAspectRatio="xMidYMid meet">
<metadata>
Created by potrace 1.14, written by Peter Selinger 2001-2017
</metadata>
<g transform="translate(0.000000,514.000000) scale(0.100000,-0.100000)"
fill="#000000" stroke="none">
<path d="M2409 5126 c-2 -2 -41 -7 -86 -10 -46 -4 -91 -9 -102 -11 -10 -2 -36
-6 -57 -10 -75 -11 -99 -16 -134 -25 -19 -5 -48 -11 -63 -14 -58 -10 -248 -69
-312 -96 -11 -5 -49 -21 -85 -36 -72 -29 -312 -152 -320 -164 -3 -4 -15 -10
-27 -14 -13 -4 -23 -12 -23 -17 0 -5 -5 -9 -11 -9 -15 0 -149 -96 -248 -178
-60 -50 -186 -168 -230 -216 -20 -21 -46 -49 -59 -62 -12 -13 -22 -25 -22 -28
0 -3 -10 -16 -23 -29 -49 -53 -67 -75 -67 -81 0 -6 -23 -36 -48 -61 -6 -8 -12
-18 -12 -24 0 -5 -7 -14 -16 -19 -9 -5 -15 -12 -15 -15 1 -6 -40 -75 -89 -147
-9 -14 -25 -44 -35 -67 -10 -24 -22 -43 -27 -43 -4 0 -8 -6 -8 -14 0 -11 -35
-89 -73 -161 -9 -18 -76 -199 -81 -220 -1 -5 -12 -41 -24 -80 -17 -57 -42
-163 -67 -288 -2 -10 -7 -46 -11 -80 -3 -34 -8 -78 -10 -97 -9 -75 -11 -369
-3 -445 5 -44 11 -102 13 -130 3 -27 8 -61 11 -75 3 -14 8 -43 11 -65 4 -22
10 -48 15 -57 6 -10 8 -18 5 -18 -3 0 4 -30 14 -68 10 -37 21 -78 24 -92 7
-37 34 -119 43 -133 4 -7 9 -20 10 -29 2 -10 11 -37 22 -60 17 -38 32 -79 32
-85 0 -2 62 -124 163 -320 6 -13 14 -23 19 -23 4 0 7 -5 7 -11 0 -12 101 -162
113 -167 4 -2 7 -10 7 -18 0 -8 4 -14 8 -14 5 0 23 -19 40 -43 17 -23 49 -61
71 -85 23 -23 41 -44 41 -47 0 -9 217 -215 227 -215 2 0 10 -6 17 -12 33 -32
75 -66 121 -98 28 -19 52 -38 53 -42 2 -5 10 -8 18 -8 8 0 14 -4 14 -10 0 -5
5 -10 11 -10 6 0 29 -14 50 -31 21 -17 39 -27 39 -22 0 4 4 4 8 -2 8 -12 20
-18 145 -84 176 -92 437 -191 577 -217 14 -3 42 -9 63 -15 38 -10 62 -14 142
-25 22 -3 51 -7 65 -10 91 -18 431 -25 565 -11 132 13 202 24 310 48 175 39
359 99 512 170 46 21 87 39 91 40 4 1 18 9 32 18 14 9 44 26 67 36 24 11 43
23 43 28 0 4 5 7 11 7 10 0 238 151 262 174 7 6 26 22 42 35 50 38 144 122
203 182 60 60 119 126 204 228 10 12 18 26 18 31 0 6 4 10 9 10 10 0 176 250
176 265 0 6 2 12 5 15 5 4 31 55 96 183 12 23 20 45 17 50 -2 4 0 7 5 7 6 0
13 12 18 28 4 15 8 29 9 32 1 3 7 19 14 35 22 49 28 67 47 125 9 30 21 64 25
75 5 11 11 33 13 48 3 16 10 43 15 60 6 18 13 43 15 57 3 14 10 48 16 75 6 28
12 64 14 80 4 29 8 58 23 160 9 65 9 442 0 520 -4 33 -12 83 -17 110 -5 28
-12 62 -14 77 -18 107 -43 210 -79 318 -23 69 -42 127 -42 130 -2 8 -16 40
-36 89 -11 24 -19 49 -19 56 0 8 -3 15 -7 17 -5 2 -29 46 -56 98 -60 120 -90
174 -99 178 -5 2 -8 9 -8 16 0 7 -11 26 -25 42 -14 16 -28 37 -31 47 -3 9 -10
17 -15 17 -5 0 -9 5 -9 10 0 9 -80 118 -115 156 -5 6 -26 31 -45 54 -48 58
-191 200 -202 200 -5 0 -6 5 -3 10 3 6 1 10 -4 10 -6 0 -24 14 -39 30 -16 17
-32 30 -35 30 -3 0 -18 11 -33 24 -52 46 -64 56 -73 56 -5 0 -11 3 -13 8 -1 4
-39 33 -83 63 -75 52 -119 79 -205 125 -19 11 -37 21 -40 24 -8 8 -105 54
-108 51 -2 -1 -14 4 -27 13 -32 21 -278 115 -345 132 -8 2 -33 8 -55 14 -22 7
-50 12 -62 13 -13 0 -23 4 -23 8 0 3 -17 9 -37 12 -21 3 -67 11 -103 17 -36 6
-85 13 -110 16 -25 2 -56 7 -70 10 -26 7 -415 15 -421 10z"/>
</g>
</svg>
